PathFileType	4	(x/y/z)	TRC_MarkerData\Passive\Passive_Pref0005.trc
DataRate	CameraRate	NumFrames	NumMarkers	Units	OrigDataRate	OrigDataStartFrame	OrigNumFrames
240	240	5	50	mm	240	274	313
Frame#	Time	R_AC			L_AC			HEAD			STERN			C7			L_IC			R_IC			L_ASIS			R_ASIS			L_GT			R_GT			L_PSIS			R_PSIS			SACRAL			L_LAT_KNEE			L_MED_KNEE			R_LAT_KNEE			R_MED_KNEE			L_LAT_ANK			L_MED_ANK			R_LAT_ANK			R_MED_ANK			L_THIGH_PROX_POST			L_THIGH_PROX_ANT			L_THIGH_DIST_ANT			L_THIGH_DIST_POST			R_THIGH_PROX_POST			R_THIGH_PROX_ANT			R_THIGH_DIST_ANT			R_THIGH_DIST_POST			L_SHANK_PROX_POST			L_SHANK_PROX_ANT			L_SHANK_DIST_ANT			L_SHANK_DIST_POST			R_SHANK_PROX_POST			R_SHANK_PROX_ANT			R_SHANK_DIST_ANT			R_SHANK_DIST_POST			L_HEEL_LAT			L_HEEL_SUP			L_HEEL_MED			R_HEEL_LAT			R_HEEL_SUP			R_HEEL_MED			L_1ST_MET			L_5TH_MET			L_TOE			R_1ST_MET			R_5TH_MET			R_TOE			
		X1	Y1	Z1	X2	Y2	Z2	X3	Y3	Z3	X4	Y4	Z4	X5	Y5	Z5	X6	Y6	Z6	X7	Y7	Z7	X8	Y8	Z8	X9	Y9	Z9	X10	Y10	Z10	X11	Y11	Z11	X12	Y12	Z12	X13	Y13	Z13	X14	Y14	Z14	X15	Y15	Z15	X16	Y16	Z16	X17	Y17	Z17	X18	Y18	Z18	X19	Y19	Z19	X20	Y20	Z20	X21	Y21	Z21	X22	Y22	Z22	X23	Y23	Z23	X24	Y24	Z24	X25	Y25	Z25	X26	Y26	Z26	X27	Y27	Z27	X28	Y28	Z28	X29	Y29	Z29	X30	Y30	Z30	X31	Y31	Z31	X32	Y32	Z32	X33	Y33	Z33	X34	Y34	Z34	X35	Y35	Z35	X36	Y36	Z36	X37	Y37	Z37	X38	Y38	Z38	X39	Y39	Z39	X40	Y40	Z40	X41	Y41	Z41	X42	Y42	Z42	X43	Y43	Z43	X44	Y44	Z44	X45	Y45	Z45	X46	Y46	Z46	X47	Y47	Z47	X48	Y48	Z48	X49	Y49	Z49	X50	Y50	Z50	

274	1.1411	545.3	1532	463.31	499.18	1555	58.346	560.02	1863.6	274.98	595.4	1508.7	258.33	462.08	1583.6	265.88	NaN	NaN	NaN	NaN	NaN	NaN	561.99	1056.8	138.89	563.97	1056.6	405.27	488.16	970.6	79.617	471	979.02	444.62	365.9	1054	209.92	359.1	1055.8	318.21	352.3	1020.2	261.68	698.47	609.04	98.421	683.92	610.76	236.55	407.88	563.15	395.65	412.43	564.5	264.15	645.96	145.57	74.358	629.76	136.08	160.02	285.06	106.98	318.02	329.56	137.81	226.1	564.13	800.16	83.052	621.91	828.42	91.097	659.97	763.39	102.3	NaN	NaN	NaN	429.32	801.39	438.17	497.2	793.22	440.15	483.34	718.79	426.75	414.54	730.27	421.96	670.27	508.55	105.78	733.1	508.42	119.11	731.47	457.87	122.85	675.88	460.67	100.32	328.58	383.55	388.19	395.54	380.64	377.91	382.83	309.14	359.75	315.18	312.27	369.22	595.44	66.446	64.086	573.08	89.461	95.123	578.5	61.313	128.53	211.91	74.096	285.74	216.75	106.34	253.46	234.19	78.036	223.55	793.65	72.775	197.41	791.96	80.651	86.351	844.29	93.313	175.95	443.45	50.3	243.43	416.71	37.016	350.46	487.91	44.34	287.48
275	1.1453	550.07	1531.1	463.01	504.17	1554.3	58.021	564.95	1862.8	274.69	600.27	1507.9	258.05	466.97	1582.8	265.58	NaN	NaN	NaN	NaN	NaN	NaN	566.79	1055.8	138.67	568.53	1055.9	405.1	492.83	969.58	79.446	475.31	978.62	444.45	370.63	1053.3	209.58	363.75	1055.2	317.84	356.97	1019.6	261.37	703.41	608.84	99.166	689.11	610.39	237.32	409.45	563.28	395.62	414.06	564.54	264.09	660.69	144.34	75.671	644.9	134.56	161.35	285.12	107.47	318.03	329.97	138.09	225.98	568.76	799.05	83.302	626.62	827.32	91.178	664.72	762.36	102.74	NaN	NaN	NaN	432.49	801.43	438.01	500.31	792.84	439.93	486.02	718.5	426.57	417.27	730.39	421.78	677.36	507.77	106.68	740.21	508.98	119.86	739.67	458.43	123.64	683.97	460.01	101.24	329.43	383.94	388.11	396.38	380.82	377.92	383.51	309.35	359.76	315.87	312.7	369.14	611.85	64.151	65.565	589.08	86.716	96.643	595.15	58.716	130.05	212.1	74.718	285.54	217.04	106.94	253.26	234.44	78.567	223.37	810.15	74.828	198.48	808.08	82.555	87.394	860.29	96.396	176.86	443.57	50.285	243.43	416.74	37.045	350.45	487.99	44.244	287.5
276	1.1495	554.86	1530.2	462.7	509.16	1553.6	57.69	569.88	1862	274.4	605.16	1507	257.76	471.88	1582	265.26	NaN	NaN	NaN	NaN	NaN	NaN	571.58	1054.7	138.42	573.11	1055.2	404.9	497.51	968.52	79.265	479.65	978.19	444.29	375.37	1052.5	209.24	368.41	1054.6	317.48	361.64	1018.9	261.06	708.28	608.56	99.907	694.28	609.97	238.09	411.05	563.41	395.58	415.7	564.58	264.02	675.28	143.25	77.027	659.93	133.2	162.72	285.19	107.95	318.02	330.39	138.37	225.86	573.36	797.87	83.541	631.28	826.13	91.252	669.36	761.27	103.18	NaN	NaN	NaN	435.67	801.44	437.85	503.44	792.45	439.71	488.71	718.19	426.38	420.02	730.5	421.58	684.37	506.97	107.6	747.22	509.51	120.6	747.76	458.97	124.43	691.97	459.34	102.19	330.28	384.33	388.01	397.24	380.99	377.92	384.19	309.56	359.77	316.56	313.13	369.06	628.12	62.033	67.111	604.97	84.147	98.241	611.69	56.313	131.63	212.29	75.339	285.33	217.34	107.54	253.05	234.69	79.099	223.19	826.46	77.039	199.55	823.99	84.598	88.44	876.08	99.615	177.75	443.69	50.269	243.44	416.76	37.076	350.43	488.08	44.152	287.53
277	1.1537	559.67	1529.3	462.39	514.15	1552.8	57.355	574.81	1861.1	274.11	610.06	1506.2	257.47	476.8	1581.2	264.95	NaN	NaN	NaN	NaN	NaN	NaN	576.39	1053.7	138.16	577.72	1054.4	404.69	502.21	967.42	79.073	484.01	977.73	444.12	380.12	1051.7	208.91	373.09	1053.9	317.13	366.33	1018.2	260.76	713.07	608.21	100.64	699.41	609.5	238.87	412.67	563.53	395.53	417.39	564.6	263.95	689.71	142.29	78.418	674.82	131.99	164.15	285.26	108.43	318	330.81	138.64	225.73	577.94	796.62	83.77	635.91	824.88	91.322	673.88	760.14	103.61	NaN	NaN	NaN	438.88	801.43	437.69	506.59	792.03	439.47	491.42	717.87	426.19	422.79	730.59	421.37	691.31	506.14	108.52	754.13	510.01	121.34	755.73	459.51	125.21	699.88	458.66	103.14	331.16	384.72	387.91	398.11	381.16	377.92	384.89	309.77	359.77	317.27	313.56	368.98	644.25	60.091	68.715	620.74	81.751	99.907	628.1	54.101	133.28	212.48	75.96	285.12	217.63	108.14	252.83	234.94	79.632	222.99	842.57	79.398	200.62	839.67	86.772	89.487	891.65	102.96	178.63	443.81	50.253	243.45	416.78	37.108	350.41	488.16	44.063	287.56
278	1.1579	564.49	1528.3	462.07	519.14	1552	57.016	579.73	1860.2	273.82	614.97	1505.2	257.16	481.74	1580.4	264.63	NaN	NaN	NaN	NaN	NaN	NaN	581.2	1052.6	137.88	582.34	1053.6	404.46	506.94	966.27	78.871	488.39	977.23	443.95	384.9	1050.8	208.58	377.79	1053.2	316.77	371.01	1017.4	260.47	717.8	607.78	101.38	704.52	608.99	239.64	414.32	563.64	395.47	419.1	564.6	263.86	703.99	141.47	79.836	689.58	130.94	165.6	285.34	108.91	317.97	331.23	138.91	225.59	582.5	795.3	83.986	640.51	823.54	91.389	678.26	758.98	104.03	NaN	NaN	NaN	442.11	801.4	437.51	509.76	791.59	439.24	494.16	717.53	425.99	425.58	730.65	421.15	698.17	505.3	109.46	760.94	510.47	122.07	763.61	460.03	125.99	707.7	457.98	104.11	332.06	385.1	387.8	399.01	381.31	377.91	385.6	309.97	359.77	318	313.98	368.88	660.21	58.322	70.365	636.37	79.528	101.63	644.37	52.077	134.99	212.66	76.581	284.9	217.93	108.75	252.61	235.19	80.167	222.79	858.46	81.894	201.68	855.12	89.066	90.533	906.98	106.42	179.49	443.93	50.237	243.46	416.8	37.142	350.39	488.25	43.978	287.6
